<svg width="172px" height="50px" viewBox="0 0 172 50" xmlns="http://www.w3.org/2000/svg">
  <g fill="none" fill-rule="evenodd">
    <path d="M.2 3.8v42.06a3.6 3.6 0 0 0 3.6 3.59h164.4a3.6 3.6 0 0 0 3.6-3.6V3.8a3.6 3.6 0 0 0-3.6-3.6H3.8A3.6 3.6 0 0 0 .2 3.8z" fill="#000" fill-rule="nonzero"/>
    <path d="M65.79 38.67h2.92l-6.4-17.74h-2.96l-6.4 17.74h2.82l1.64-4.71h6.76l1.62 4.7zm-5.1-14.52h.2l2.58 7.5H58.1l2.58-7.5zm15.78.91c-1.82 0-3.4.91-4.2 2.44h-.2v-2.22h-2.55V43h2.65v-6.36h.2c.7 1.41 2.22 2.25 4.12 2.25 3.38 0 5.53-2.67 5.53-6.92s-2.15-6.9-5.55-6.9zm-.75 11.45c-2.21 0-3.6-1.74-3.6-4.53 0-2.8 1.39-4.55 3.6-4.55 2.25 0 3.58 1.71 3.58 4.54 0 2.84-1.33 4.54-3.58 4.54zm14.45-11.45c-1.82 0-3.4.91-4.2 2.44h-.2v-2.22h-2.54V43h2.64v-6.36h.2c.7 1.41 2.22 2.25 4.12 2.25 3.38 0 5.53-2.67 5.53-6.92s-2.15-6.9-5.55-6.9zm-.75 11.45c-2.21 0-3.6-1.74-3.6-4.53 0-2.8 1.39-4.55 3.61-4.55 2.24 0 3.58 1.71 3.58 4.54 0 2.84-1.34 4.54-3.6 4.54zm11.9-2.61c.2 3.17 2.83 5.2 6.76 5.2 4.2 0 6.84-2.13 6.84-5.52 0-2.67-1.5-4.14-5.14-5l-1.95-.47c-2.31-.54-3.25-1.27-3.25-2.53 0-1.6 1.45-2.64 3.63-2.64 2.06 0 3.49 1.02 3.75 2.65h2.67c-.16-2.98-2.78-5.09-6.39-5.09-3.87 0-6.45 2.1-6.45 5.26 0 2.6 1.47 4.16 4.67 4.9l2.29.56c2.35.55 3.38 1.36 3.38 2.71 0 1.58-1.62 2.72-3.84 2.72-2.37 0-4.01-1.07-4.25-2.75h-2.73zm15.87-11.86v3.3H115v2.23h2.2v7.56c0 2.58 1.17 3.6 4.1 3.6.52 0 1-.05 1.42-.13v-2.2c-.37.04-.58.07-.98.07-1.32 0-1.9-.62-1.9-2.02v-6.88h3v-2.22h-3v-3.31h-2.64zm12.2 14.54c-2.3 0-3.6-1.69-3.6-4.61 0-2.9 1.3-4.6 3.6-4.6 2.28 0 3.58 1.7 3.58 4.6 0 2.91-1.3 4.6-3.59 4.6zm0 2.34c3.9 0 6.3-2.61 6.3-6.95 0-4.31-2.41-6.94-6.3-6.94-3.92 0-6.32 2.63-6.32 6.94 0 4.34 2.4 6.95 6.31 6.95zm7.5-.25h2.64v-7.9c0-1.89 1.41-3.15 3.4-3.15.45 0 1.26.08 1.47.16v-2.6a5.54 5.54 0 0 0-1.17-.12c-1.74 0-3.22.96-3.6 2.28h-.2v-2.06h-2.54v13.39zm13.46-11.4c1.95 0 3.23 1.37 3.29 3.47h-6.76c.15-2.09 1.51-3.47 3.47-3.47zm3.28 7.78c-.5 1.05-1.59 1.62-3.19 1.62-2.11 0-3.47-1.48-3.56-3.83v-.15h9.45v-.92c0-4.2-2.25-6.74-5.97-6.74-3.77 0-6.17 2.71-6.17 6.99 0 4.27 2.35 6.9 6.18 6.9 3.06 0 5.2-1.47 5.8-3.87h-2.54zM55.42 7.1v8.44h3.05c2.52 0 3.97-1.55 3.97-4.25 0-2.66-1.46-4.2-3.97-4.2h-3.05zm1.31 1.19h1.6c1.74 0 2.78 1.1 2.78 3.02 0 1.93-1.02 3.03-2.79 3.03h-1.59V8.3zm10.33 6.25c-1.1 0-1.71-.8-1.71-2.2 0-1.37.61-2.18 1.7-2.18 1.1 0 1.71.8 1.71 2.19 0 1.38-.62 2.2-1.7 2.2zm0 1.12c1.86 0 3-1.25 3-3.31s-1.15-3.3-3-3.3c-1.86 0-3.01 1.24-3.01 3.3 0 2.06 1.14 3.31 3 3.31zm12.86-6.5h-1.26l-1.13 4.87h-.1l-1.31-4.86H74.9l-1.31 4.86h-.1l-1.14-4.86H71.1l1.75 6.37h1.3l1.3-4.7h.1l1.32 4.7h1.3l1.76-6.37zm1.6 6.38h1.26V11.8c0-1 .62-1.62 1.63-1.62.93 0 1.39.51 1.39 1.54v3.8h1.26v-4.12c0-1.51-.8-2.37-2.23-2.37-.95 0-1.7.43-2 1.14h-.1V9.17h-1.21v6.37zm7.66 0h1.26V6.68h-1.26v8.86zm6.14-1c-1.1 0-1.71-.8-1.71-2.2 0-1.37.61-2.18 1.7-2.18 1.1 0 1.72.8 1.72 2.19 0 1.38-.62 2.2-1.71 2.2zm0 1.12c1.86 0 3-1.25 3-3.31s-1.15-3.3-3-3.3c-1.86 0-3.01 1.24-3.01 3.3 0 2.06 1.14 3.31 3 3.31zm6.9-1.08c-.7 0-1.2-.33-1.2-.9 0-.57.4-.86 1.28-.92l1.56-.1v.53c0 .8-.7 1.4-1.65 1.4zm-.33 1.06c.84 0 1.53-.36 1.91-1h.1v.9h1.21v-4.36c0-1.34-.9-2.14-2.5-2.14-1.44 0-2.47.7-2.6 1.8h1.22c.14-.45.62-.7 1.33-.7.86 0 1.3.37 1.3 1.04v.55l-1.73.1c-1.51.1-2.36.76-2.36 1.9 0 1.17.89 1.91 2.12 1.91zm7.64 0c.88 0 1.62-.41 2-1.1h.1v1h1.2V6.68h-1.25v3.5h-.1a2.1 2.1 0 0 0-1.95-1.12c-1.6 0-2.64 1.28-2.64 3.29 0 2.02 1.02 3.3 2.64 3.3zm.36-5.45c1.05 0 1.71.84 1.71 2.16 0 1.34-.65 2.16-1.71 2.16-1.07 0-1.7-.81-1.7-2.16 0-1.34.64-2.16 1.7-2.16zm11.4 4.35c-1.1 0-1.7-.8-1.7-2.2 0-1.37.6-2.18 1.7-2.18 1.09 0 1.7.8 1.7 2.19 0 1.38-.61 2.2-1.7 2.2zm0 1.12c1.86 0 3-1.25 3-3.31s-1.15-3.3-3-3.3c-1.86 0-3 1.24-3 3.3 0 2.06 1.13 3.31 3 3.31zm4.81-.12h1.26V11.8c0-1 .62-1.62 1.63-1.62.94 0 1.4.51 1.4 1.54v3.8h1.25v-4.12c0-1.51-.8-2.37-2.22-2.37-.96 0-1.7.43-2.01 1.14h-.1V9.17h-1.2v6.37zm11.63-7.92v1.57h-1.05v1.06h1.05v3.6c0 1.23.56 1.72 1.95 1.72.25 0 .48-.03.68-.06v-1.05c-.18.02-.28.03-.47.03-.63 0-.9-.3-.9-.96v-3.28h1.43V9.2h-1.43V7.62h-1.26zm4.48 7.92h1.25v-3.72c0-.97.64-1.62 1.67-1.62.95 0 1.42.52 1.42 1.53v3.8h1.26v-4.1c0-1.52-.82-2.38-2.25-2.38-.96 0-1.7.43-2 1.14h-.1V6.68h-1.25v8.86zm10.3-5.43c.92 0 1.53.65 1.56 1.65h-3.22c.07-1 .72-1.65 1.65-1.65zm1.55 3.7c-.23.5-.75.78-1.51.78-1 0-1.66-.7-1.7-1.83v-.07h4.5v-.44c0-2-1.07-3.2-2.84-3.2-1.8 0-2.94 1.29-2.94 3.32 0 2.04 1.12 3.29 2.94 3.29 1.46 0 2.48-.7 2.76-1.84h-1.2z" fill="#FFF"/>
    <g fill="#FFF">
      <path d="M37.75 25.07c-.04-4.29 3.5-6.37 3.67-6.47a7.9 7.9 0 0 0-6.22-3.36c-2.61-.27-5.15 1.57-6.48 1.57-1.36 0-3.42-1.54-5.63-1.5a8.28 8.28 0 0 0-6.97 4.25c-3 5.22-.76 12.89 2.13 17.1 1.44 2.07 3.13 4.37 5.34 4.3 2.16-.1 2.96-1.39 5.57-1.39 2.59 0 3.34 1.38 5.6 1.33 2.32-.04 3.78-2.07 5.17-4.16a17.03 17.03 0 0 0 2.37-4.82 7.45 7.45 0 0 1-4.55-6.85M33.5 12.47a7.59 7.59 0 0 0 1.73-5.44 7.73 7.73 0 0 0-5 2.58c-1.07 1.26-2.03 3.31-1.78 5.24 1.89.14 3.83-.95 5.04-2.38"/>
    </g>
  </g>
</svg>
