<svg xmlns="http://www.w3.org/2000/svg" xmlns:xlink="http://www.w3.org/1999/xlink" width="172px" height="50px" viewBox="0 0 172 50">
  <defs>
    <path id="a" d="M.05.04h34V18.4h-34z"/>
  </defs>
  <g fill="none" fill-rule="evenodd">
    <path fill="#000" fill-rule="nonzero" d="M.17 4.85v39.7c0 2.58 2.1 4.67 4.68 4.67h162.3c2.58 0 4.68-2.1 4.68-4.68V4.85c0-2.58-2.1-4.68-4.68-4.68H4.85A4.68 4.68 0 0 0 .17 4.85z"/>
    <g fill-rule="nonzero">
      <path fill="#EFEFF0" d="M12 38.35c0 .52.42.94.94.94h32.12c.52 0 .94-.42.94-.94v-16.5a.94.94 0 0 0-.94-.93H12.94a.94.94 0 0 0-.94.94v16.49z"/>
      <path fill="#ABADAD" d="M34.04 10.22H23.9V7.69h10.13z"/>
      <path fill="#E3E4E5" d="M46 25.99H12V12.74h9.5v-2.52l2.41-2.53v5.05h10.13V7.69l2.51 2.53v2.52H46z"/>
    </g>
    <g transform="matrix(1 0 0 -1 11.95 39.32)">
      <mask id="b" fill="#fff">
        <use xlink:href="#a"/>
      </mask>
      <g fill-rule="nonzero" mask="url(#b)">
        <path fill="#E14C40" d="M17 17.67s8.59.39 13.13-8.25H16.28s-2.62.08-4.85-3.1C10.8 5 10.1 3.62 10.87.91 9.76 2.8 4.96 11.18 4.96 11.18S8.34 17.33 17 17.67"/>
        <path fill="#FFD24D" d="M29.69-4.27s-3.96-7.63-13.7-7.26L22.92.5s1.38 2.22-.25 5.75c-.83 1.22-1.68 2.5-4.4 3.2 2.19.01 11.83-.01 11.83-.01s3.62-6.02-.41-13.7"/>
        <path fill="#00AA60" d="M4.4-4.32s-4.63 7.25.56 15.51L11.9-.83s1.23-2.32 5.1-2.66c1.47.1 3 .2 4.95 2.22-1.07-1.91-5.92-10.27-5.92-10.27s-7-.13-11.63 7.22"/>
        <path fill="#FFF" d="M10.48 2.95a6.5 6.5 0 1 0 13 0 6.5 6.5 0 0 0-13 0"/>
        <path fill="#577FC0" d="M11.88 2.95a5.1 5.1 0 1 0 10.2 0 5.1 5.1 0 0 0-10.2 0"/>
        <path fill="#D6483E" d="M17 17.67s5.67.25 10.23-4.28c-.07 0-15.57-.05-20.56-.05 1.8 1.8 5.11 4.12 10.34 4.33"/>
      </g>
    </g>
    <path fill="#FFF" d="M60.34 20a8.6 8.6 0 0 1-.12-.87c-.2.28-.45.51-.77.7-.32.19-.66.28-1.02.28-.6 0-1.07-.15-1.39-.46a1.7 1.7 0 0 1-.47-1.28c0-.56.22-1 .67-1.3a3.15 3.15 0 0 1 1.83-.48h1.15v-.57c0-.34-.1-.61-.31-.8-.2-.2-.5-.3-.88-.3-.34 0-.62.08-.83.25a.78.78 0 0 0-.32.63h-1.01l-.01-.03c-.02-.42.18-.81.6-1.16.42-.35.96-.53 1.63-.53.66 0 1.19.17 1.59.5.4.34.6.82.6 1.45v2.8a5.45 5.45 0 0 0 .15 1.17h-1.09zm-1.76-.77c.39 0 .73-.1 1.04-.3.3-.2.5-.42.6-.68v-.94h-1.19c-.42 0-.76.1-1.02.32a.96.96 0 0 0-.38.76c0 .26.08.46.24.61.16.15.4.23.71.23zm6.1-.94l.09.4h.03l.1-.4 1.34-4.1h1.08L65.18 20h-.8l-2.17-5.81h1.09l1.37 4.1zM71.75 20a8.6 8.6 0 0 1-.12-.87c-.2.28-.45.51-.77.7-.32.19-.66.28-1.02.28-.6 0-1.07-.15-1.39-.46a1.7 1.7 0 0 1-.47-1.28c0-.56.22-1 .67-1.3a3.15 3.15 0 0 1 1.83-.48h1.15v-.57c0-.34-.1-.61-.31-.8-.2-.2-.5-.3-.88-.3-.34 0-.62.08-.83.25a.78.78 0 0 0-.32.63h-1.01l-.01-.03c-.02-.42.18-.81.6-1.16.42-.35.96-.53 1.63-.53.66 0 1.19.17 1.59.5.4.34.6.82.6 1.45v2.8a5.45 5.45 0 0 0 .15 1.17h-1.1zM70 19.23c.39 0 .73-.1 1.04-.3.3-.2.5-.42.6-.68v-.94h-1.19c-.42 0-.76.1-1.02.32a.96.96 0 0 0-.38.76c0 .26.08.46.24.61.16.15.4.23.71.23zm5.38.77h-1.06v-5.81h1.06V20zm0-7.3h-1.06v-1.08h1.06v1.08zm2.77 7.3h-1.06v-8.38h1.06V20zm5.2 0a8.6 8.6 0 0 1-.12-.87c-.2.28-.45.51-.77.7-.32.19-.66.28-1.02.28-.6 0-1.07-.15-1.39-.46a1.7 1.7 0 0 1-.47-1.28c0-.56.22-1 .67-1.3a3.15 3.15 0 0 1 1.83-.48h1.15v-.57c0-.34-.1-.61-.31-.8-.2-.2-.5-.3-.88-.3-.34 0-.62.08-.83.25a.78.78 0 0 0-.32.63h-1.01l-.01-.03c-.02-.42.18-.81.6-1.16.42-.35.96-.53 1.63-.53.66 0 1.19.17 1.59.5.4.34.6.82.6 1.45v2.8a5.45 5.45 0 0 0 .15 1.17h-1.09zm-1.76-.77c.39 0 .73-.1 1.04-.3.3-.2.5-.42.6-.68v-.94h-1.19c-.42 0-.76.1-1.02.32a.96.96 0 0 0-.38.76c0 .26.08.46.24.61.16.15.4.23.71.23zm9.2-1.92c0 .84-.2 1.52-.6 2.03a2 2 0 0 1-1.67.77 1.86 1.86 0 0 1-1.7-.88l-.13.77h-.86v-8.38h1.05v3.26c.19-.26.41-.46.68-.6.27-.13.59-.2.95-.2.72 0 1.28.29 1.68.86.4.57.6 1.33.6 2.26v.11zm-1.06-.1c0-.67-.12-1.22-.37-1.64a1.21 1.21 0 0 0-1.12-.63c-.32 0-.6.08-.82.24-.23.16-.4.37-.54.64v2.52c.14.29.32.51.54.67.22.16.5.24.83.24.5 0 .87-.17 1.12-.53.24-.35.36-.82.36-1.4v-.12zm3.5 2.79h-1.07v-8.38h1.06V20zm4.03.11c-.8 0-1.45-.27-1.93-.8a3.04 3.04 0 0 1-.72-2.1v-.24c0-.83.25-1.51.74-2.06a2.3 2.3 0 0 1 1.75-.83c.78 0 1.38.24 1.78.71.4.47.6 1.1.6 1.9v.65H95.7l-.02.03c.01.56.15 1.02.43 1.38.27.36.65.54 1.14.54.36 0 .67-.06.94-.16.27-.1.5-.24.7-.42l.42.69c-.21.2-.48.37-.82.5-.34.14-.76.21-1.24.21zm-.16-5.2c-.35 0-.66.15-.9.45-.26.3-.41.68-.47 1.13l.01.02h2.68v-.14c0-.41-.11-.76-.33-1.04-.22-.28-.55-.42-.99-.42zm7.44 5.09h-1.05v-5.81h1.05V20zm0-7.3h-1.05v-1.08h1.05v1.08zm2.58 1.49l.07.86c.2-.3.44-.54.73-.71.3-.17.62-.26 1-.26.62 0 1.1.18 1.45.55.35.37.52.94.52 1.7V20h-1.06v-3.65c0-.5-.1-.87-.3-1.09-.2-.21-.52-.32-.93-.32-.3 0-.57.07-.8.22a1.6 1.6 0 0 0-.57.6V20h-1.06v-5.81h.95zm9.43-1.4v1.4h1.1v.78h-1.1v3.53c0 .27.06.47.17.58.12.1.27.16.45.16.06 0 .13 0 .2-.02l.2-.05.14.72a.93.93 0 0 1-.35.16c-.15.04-.3.06-.46.06-.43 0-.77-.13-1.02-.39-.26-.26-.38-.66-.38-1.22v-3.53h-.93v-.78h.93v-1.4h1.05zm3.47 2.18a2.03 2.03 0 0 1 1.7-.89c.63 0 1.1.19 1.45.56.35.37.52.94.52 1.72V20h-1.06v-3.65c0-.48-.1-.84-.3-1.07-.21-.22-.52-.34-.93-.34-.29 0-.56.07-.8.2-.23.15-.43.33-.58.57V20h-1.06v-8.38h1.06v3.35zm7.6 5.14c-.8 0-1.45-.27-1.93-.8a3.04 3.04 0 0 1-.71-2.1v-.24c0-.83.24-1.51.73-2.06a2.3 2.3 0 0 1 1.75-.83c.79 0 1.38.24 1.78.71.4.47.6 1.1.6 1.9v.65h-3.77l-.01.03c0 .56.15 1.02.42 1.38.27.36.65.54 1.14.54.36 0 .68-.06.95-.16.27-.1.5-.24.7-.42l.41.69c-.2.2-.48.37-.82.5-.34.14-.75.21-1.24.21zm-.16-5.2c-.35 0-.65.15-.9.45-.26.3-.41.68-.47 1.13l.01.02h2.68v-.14c0-.41-.1-.76-.33-1.04-.22-.28-.55-.42-.99-.42zM58.6 34.71c.32 0 .59-.1.79-.29.2-.19.3-.45.3-.77h1.68l.02.04c.01.7-.25 1.27-.79 1.74s-1.2.7-2 .7a2.95 2.95 0 0 1-2.37-.97 3.7 3.7 0 0 1-.84-2.5v-.18c0-1.01.28-1.85.83-2.5A2.93 2.93 0 0 1 58.6 29c.84 0 1.53.25 2.04.73.52.48.77 1.12.76 1.9l-.02.04h-1.69c0-.35-.1-.65-.29-.88a.99.99 0 0 0-.8-.36c-.5 0-.84.2-1.04.57-.2.39-.3.88-.3 1.48v.19c0 .61.1 1.1.3 1.48.2.37.55.56 1.04.56zm5.65-4.7c.21-.32.48-.57.8-.74a2.1 2.1 0 0 1 1.03-.27c.72 0 1.28.24 1.69.72.4.48.61 1.21.61 2.2V36h-1.85v-4.09c0-.53-.1-.9-.29-1.13-.18-.22-.46-.33-.84-.33a1.31 1.31 0 0 0-1.15.52V36H62.4v-9.9h1.85V30zm9.14.72l-.68-.02c-.28 0-.5.05-.68.17a1 1 0 0 0-.4.48V36h-1.85v-6.87h1.72l.08 1.02c.16-.36.37-.64.63-.84a1.4 1.4 0 0 1 1.14-.28l.24.05-.2 1.65zm.65 1.77c0-1.02.29-1.86.86-2.51a2.99 2.99 0 0 1 2.37-.99c1.02 0 1.82.33 2.4.98.57.65.85 1.5.85 2.52v.14c0 1.03-.28 1.87-.86 2.52a3 3 0 0 1-2.37.97 3.01 3.01 0 0 1-2.39-.97 3.67 3.67 0 0 1-.86-2.52v-.14zm1.85.14c0 .62.11 1.12.33 1.5.22.38.58.57 1.07.57.47 0 .82-.19 1.05-.57.22-.38.33-.88.33-1.5v-.14c0-.6-.11-1.1-.34-1.49a1.14 1.14 0 0 0-1.06-.58c-.47 0-.82.2-1.05.58-.22.4-.33.89-.33 1.5v.13zm7.5-3.5l.07.9c.22-.33.5-.59.83-.77.33-.18.72-.27 1.15-.27.44 0 .82.1 1.13.3.32.2.55.49.71.88A2.24 2.24 0 0 1 89.3 29c.68 0 1.21.23 1.6.7.4.46.6 1.18.6 2.13V36h-1.86v-4.16c0-.52-.09-.89-.25-1.09-.17-.2-.43-.3-.76-.3a1.2 1.2 0 0 0-1.14.66 2.85 2.85 0 0 0 .01.38V36h-1.85v-4.16c0-.51-.08-.87-.25-1.08-.17-.2-.42-.31-.76-.31-.25 0-.47.04-.66.14-.19.1-.34.23-.47.4V36h-1.84v-6.87h1.72zm12.57 7a3.1 3.1 0 0 1-2.38-.96 3.4 3.4 0 0 1-.89-2.42v-.25c0-1.02.28-1.86.84-2.52A2.8 2.8 0 0 1 95.8 29c.93 0 1.65.28 2.16.84.51.56.77 1.32.77 2.27v1h-4.1l-.02.05c.04.45.19.82.46 1.11.27.3.63.44 1.1.44a3.57 3.57 0 0 0 1.9-.51l.5 1.14c-.28.23-.64.42-1.1.57-.45.15-.95.22-1.5.22zm-.17-5.7a.96.96 0 0 0-.81.39c-.2.26-.32.6-.37 1.03l.02.03h2.27v-.16c0-.4-.1-.71-.28-.94-.18-.24-.46-.36-.83-.36zm13.22 3.1h.03l.9-4.4h1.74L109.93 36h-1.55l-1.27-4.09h-.04L105.79 36h-1.54l-1.74-6.87h1.74l.9 4.4h.04l1.28-4.4h1.24l1.3 4.41zm6.63 2.6a3.1 3.1 0 0 1-2.37-.96 3.4 3.4 0 0 1-.9-2.42v-.25c0-1.02.29-1.86.85-2.52a2.8 2.8 0 0 1 2.25-.99c.93 0 1.65.28 2.16.84.51.56.77 1.32.77 2.27v1h-4.1l-.01.05c.03.45.18.82.45 1.11.27.3.63.44 1.1.44a3.57 3.57 0 0 0 1.9-.51l.5 1.14c-.27.23-.64.42-1.09.57-.45.15-.96.22-1.51.22zm-.17-5.7a.96.96 0 0 0-.8.39c-.2.26-.33.6-.38 1.03l.02.03h2.27v-.16c0-.4-.09-.71-.27-.94-.19-.24-.46-.36-.84-.36zm10.2 2.32c0 1.02-.22 1.84-.68 2.45a2.3 2.3 0 0 1-1.98.92c-.4 0-.75-.08-1.05-.25-.3-.16-.55-.4-.75-.73l-.14.85h-1.6v-9.9h1.86v3.76c.2-.27.43-.48.71-.63A2 2 0 0 1 123 29c.87 0 1.53.33 1.99 1 .46.65.68 1.53.68 2.62v.14zm-1.84-.14c0-.67-.1-1.2-.3-1.59-.2-.39-.53-.58-1-.58-.3 0-.53.06-.73.18-.2.12-.36.29-.47.51v2.91c.11.2.27.37.47.48.2.1.45.16.74.16.48 0 .81-.17 1-.5.2-.34.29-.82.29-1.43v-.14zm9.94 1.49c0-.2-.1-.38-.3-.53a3 3 0 0 0-1.1-.4 4.4 4.4 0 0 1-1.83-.73 1.6 1.6 0 0 1-.62-1.32c0-.6.25-1.1.75-1.5a3 3 0 0 1 2-.63c.87 0 1.57.21 2.09.62.51.41.76.93.74 1.56l-.01.03h-1.8a.9.9 0 0 0-.26-.67c-.17-.17-.43-.26-.77-.26-.3 0-.53.07-.7.22a.7.7 0 0 0-.26.55c0 .21.09.38.27.52.18.13.54.26 1.1.36.84.17 1.47.42 1.88.75.4.32.61.78.61 1.35a1.8 1.8 0 0 1-.79 1.52c-.53.39-1.23.58-2.1.58-.9 0-1.63-.23-2.16-.7-.53-.46-.79-.98-.76-1.58l.01-.03h1.7c.01.36.13.63.36.8.23.16.53.24.9.24.34 0 .6-.06.78-.2a.65.65 0 0 0 .27-.55zm5.19-6.66v1.68h1.16v1.3h-1.16v3.5c0 .27.06.46.17.57.1.12.25.17.44.17a1.7 1.7 0 0 0 .5-.07l.15 1.34a3.72 3.72 0 0 1-1.12.2 2 2 0 0 1-1.48-.53c-.34-.35-.51-.91-.51-1.67v-3.5h-1v-1.3h1v-1.69h1.85zm2.05 5.05c0-1.02.29-1.86.86-2.51a2.99 2.99 0 0 1 2.37-.99c1.02 0 1.81.33 2.39.98.57.65.86 1.5.86 2.52v.14c0 1.03-.29 1.87-.86 2.52a3 3 0 0 1-2.38.97 3.01 3.01 0 0 1-2.38-.97 3.67 3.67 0 0 1-.86-2.52v-.14zm1.85.14c0 .62.1 1.12.33 1.5.22.38.57.57 1.06.57.48 0 .83-.19 1.05-.57.23-.38.34-.88.34-1.5v-.14c0-.6-.11-1.1-.34-1.49a1.14 1.14 0 0 0-1.06-.58c-.48 0-.83.2-1.05.58-.22.4-.33.89-.33 1.5v.13zm9.39-1.91l-.68-.02c-.28 0-.5.05-.68.17a.95.95 0 0 0-.4.48V36h-1.86v-6.87h1.72l.09 1.02c.16-.36.37-.64.62-.84a1.4 1.4 0 0 1 1.14-.28l.24.05-.2 1.65zm3.98 5.4a3.1 3.1 0 0 1-2.38-.95 3.4 3.4 0 0 1-.89-2.42v-.25c0-1.02.28-1.86.84-2.52a2.8 2.8 0 0 1 2.26-.99c.93 0 1.65.28 2.16.84.51.56.77 1.32.77 2.27v1h-4.1l-.02.05c.04.45.19.82.46 1.11.27.3.63.44 1.1.44a3.57 3.57 0 0 0 1.9-.51l.5 1.14c-.27.23-.64.42-1.1.57-.45.15-.95.22-1.5.22zm-.17-5.7a.96.96 0 0 0-.81.4c-.2.26-.32.6-.37 1.03l.02.03h2.27v-.16c0-.4-.09-.71-.27-.94-.19-.24-.47-.36-.84-.36z"/>
  </g>
</svg>
