<svg id="Layer_1" xmlns="http://www.w3.org/2000/svg" xmlns:xlink="http://www.w3.org/1999/xlink" width="172px" height="50px" viewBox="0 0 172 50"><style>.st0{fill:#fff}.st9{opacity:.75}</style><path d="M.2 4.8v39.7c0 2.6 2.1 4.7 4.7 4.7h162.3c2.6 0 4.7-2.1 4.7-4.7V4.8c0-2.6-2.1-4.7-4.7-4.7H4.8A4.9 4.9 0 0 0 .2 4.8z"/><path class="st0" d="M60.3 20l-.1-.9-.8.7c-.3.2-.6.3-1 .3-.6 0-1.1-.1-1.4-.5-.3-.3-.5-.8-.5-1.3 0-.6.2-1 .7-1.3s1.2-.5 1.8-.5h1.2V16c0-.3-.1-.6-.3-.8s-.5-.3-.9-.3c-.3 0-.6.1-.8.3-.2.1-.3.4-.3.6h-1c0-.4.2-.8.6-1.2.4-.4 1-.5 1.6-.5.7 0 1.2.2 1.6.5.4.3.6.8.6 1.4v2.8l.2 1.2h-1.2zm-1.7-.8c.4 0 .7-.1 1-.3.3-.2.5-.4.6-.7v-.9H59c-.4 0-.8.1-1 .3-.2.2-.4.5-.4.8l.2.6.8.2zm6.1-.9l.1.4.1-.4 1.3-4.1h1.1L65.2 20h-.8l-2.2-5.8h1.1l1.4 4.1zm7.1 1.7l-.1-.9c-.2.3-.4.5-.8.7l-1 .3c-.6 0-1.1-.1-1.4-.5-.3-.3-.5-.8-.5-1.3 0-.6.2-1 .7-1.3s1.2-.5 1.8-.5h1.2V16c0-.3-.1-.6-.3-.8-.2-.2-.5-.3-.9-.3-.3 0-.6.1-.8.3-.2.1-.3.4-.3.6h-1c0-.4.2-.8.6-1.2s1-.5 1.6-.5c.7 0 1.2.2 1.6.5s.6.8.6 1.4v2.8L73 20h-1.2zm-1.8-.8c.4 0 .7-.1 1-.3.3-.2.5-.4.6-.7v-.9h-1.2c-.4 0-.8.1-1 .3-.2.2-.4.5-.4.8l.2.6.8.2zm5.4.8h-1.1v-5.8h1.1V20zm0-7.3h-1.1v-1.1h1.1v1.1zm2.7 7.3H77v-8.4h1.1V20zm5.2 0l-.1-.9c-.2.3-.4.5-.8.7l-1 .3c-.6 0-1.1-.1-1.4-.5-.3-.3-.5-.8-.5-1.3 0-.6.2-1 .7-1.3s1.2-.5 1.8-.5h1.2V16c0-.3-.1-.6-.3-.8-.2-.2-.5-.3-.9-.3-.3 0-.6.1-.8.3-.2.1-.3.4-.3.6h-1c0-.4.2-.8.6-1.2s1-.5 1.6-.5c.7 0 1.2.2 1.6.5s.6.8.6 1.4v2.8l.2 1.2h-1.2zm-1.7-.8c.4 0 .7-.1 1-.3.3-.2.5-.4.6-.7v-.9H82c-.4 0-.8.1-1 .3-.2.2-.4.5-.4.8l.2.6.8.2zm9.2-1.9c0 .8-.2 1.5-.6 2s-1 .8-1.7.8a2 2 0 0 1-1.7-.9l-.1.8h-.9v-8.4h1.1v3.3c.2-.3.4-.5.7-.6l.9-.2c.7 0 1.3.3 1.7.9s.6 1.3.6 2.3c0-.1 0 0 0 0zm-1.1-.1c0-.7-.1-1.2-.4-1.6-.2-.4-.7-.7-1.1-.6l-.8.2-.5.6v2.5l.5.7c.2.2.5.2.8.2.5 0 .9-.2 1.1-.5.2-.4.4-.8.4-1.4v-.1zm3.5 2.8h-1.1v-8.4h1.1V20zm4.1.1c-.8 0-1.4-.3-1.9-.8-.5-.6-.8-1.3-.7-2.1V17c0-.8.3-1.5.7-2.1.4-.5 1.1-.8 1.8-.8.8 0 1.4.2 1.8.7s.6 1.1.6 1.9v.6h-3.8c0 .6.2 1 .4 1.4.3.4.7.5 1.1.5l.9-.2.7-.4.4.7-.8.5c-.3.2-.8.3-1.2.3zm-.2-5.2c-.3 0-.7.1-.9.4-.3.3-.4.7-.5 1.1h2.7v-.1c0-.4-.1-.8-.3-1s-.6-.4-1-.4zm7.4 5.1h-1.1v-5.8h1.1V20zm0-7.3h-1.1v-1.1h1.1v1.1zm2.6 1.5l.1.9.7-.7c.3-.2.6-.3 1-.3.6 0 1.1.2 1.4.6s.5.9.5 1.7V20h-1.1v-3.6c0-.5-.1-.9-.3-1.1-.2-.2-.5-.3-.9-.3l-.8.2-.6.6V20H106v-5.8h1.1zm9.4-1.4v1.4h1.1v.8h-1.1v3.5l.2.6.4.2h.4l.1.7-.3.2-.5.1c-.4 0-.8-.1-1-.4-.3-.3-.4-.7-.4-1.2V15h-.9v-.8h.9v-1.4h1.1zM120 15a2 2 0 0 1 1.7-.9c.6 0 1.1.2 1.4.6.3.4.5.9.5 1.7V20h-1.1v-3.6c0-.5-.1-.8-.3-1.1-.2-.2-.5-.3-.9-.3l-.8.2-.6.6V20h-.9v-8.4h1.1L120 15zm7.6 5.1c-.8 0-1.4-.3-1.9-.8-.5-.6-.7-1.3-.7-2.1V17c0-.8.2-1.5.7-2.1.4-.5 1.1-.8 1.8-.8.8 0 1.4.2 1.8.7s.6 1.1.6 1.9v.6h-3.8c0 .6.2 1 .4 1.4.3.4.7.5 1.1.5l.9-.2.7-.4.4.7-.8.5c-.3.2-.7.3-1.2.3zm-.1-5.2c-.3 0-.7.1-.9.4-.3.3-.4.7-.5 1.1h2.7v-.1c0-.4-.1-.8-.3-1-.3-.2-.6-.4-1-.4zM58.3 30.4V35h-1.7v-4.6H56V29h.7l.1-1.3c0-.2.3-.5.6-.7s.8-.3 1.4-.3l.8.1v1.3H59l-.5.2-.1.6v.2h1.1v1.4h-1.2zM62.1 26.8v1.7h-1.7v-1.7h1.7zm0 2.3V35h-1.7v-5.9h1.7zM65.2 35h-1.7v-5.9h1.6v1.1c.2-.8.7-1.2 1.3-1.2h.3v1.7l-.8.2c-.2.1-.4.3-.5.6l-.2 1.1V35zM73 32.3h-3.8v.3c0 .4.1.7.3 1s.5.3.8.3c.6 0 .9-.3 1-.9l1.6.1c-.4 1.4-1.3 2.1-2.7 2.1-.6 0-1.1-.1-1.5-.4s-.8-.6-1-1-.4-1-.4-1.6c0-.9.3-1.7.8-2.3s1.2-.9 2.1-.9c.8 0 1.4.3 2 .8s.8 1.4.8 2.5zm-3.8-1h2.1c-.1-.8-.4-1.2-1-1.2s-1 .4-1.1 1.2zM75.9 30.4V35h-1.7v-4.6h-.7V29h.7l.1-1.3c0-.2.3-.5.6-.7s.8-.3 1.4-.3l.8.1v1.3h-.6l-.5.2-.1.6v.2H77v1.4h-1.1zM80.3 29c.9 0 1.6.3 2.1.9.5.6.8 1.3.8 2.2 0 .9-.3 1.6-.8 2.2-.5.6-1.2.9-2.1.9-.8 0-1.5-.3-2-.9s-.8-1.3-.8-2.2c0-.6.1-1.2.3-1.6.2-.4.5-.8.9-1.1s1-.4 1.6-.4zm.1 1.1c-.3 0-.6.1-.7.4s-.3.8-.3 1.5l.2 1.5c.2.3.4.5.7.5.3 0 .5-.1.7-.4.2-.3.3-.8.3-1.5l-.2-1.6c-.1-.3-.4-.4-.7-.4zM89 29.1l-1.7 2.7 2 3.2h-2l-1.2-2-1.2 2h-1.5l2-3.2-1.7-2.7h2l.9 1.6.9-1.6H89zM101.5 35h-1.7v-3.3-.9l-.2-.3-.5-.1-.6.2c-.2.1-.3.5-.3 1.2V35h-1.7v-3.3l-.1-.9-.2-.3-.5-.1c-.3 0-.5.1-.7.3s-.2.6-.2 1.1V35H93v-5.9h1.6v.9c.3-.7.8-1 1.7-1 .8 0 1.3.3 1.6 1 .3-.7.9-1 1.7-1l1 .2c.3.1.5.4.6.6l.2 1.3V35zM108.1 35h-1.7l-.1-.9c-.3.4-.6.7-.9.8a3 3 0 0 1-1 .2c-.6 0-1-.2-1.3-.5-.3-.3-.5-.7-.5-1.2 0-.4.1-.7.3-1 .2-.3.5-.6 1-.7l2.4-.4V31c0-.6-.3-.9-.9-.9-.6 0-1 .3-1 .9l-1.6-.2c.1-.7.4-1.1 1-1.4s1.1-.4 1.8-.4l1.1.1.8.4.4.6.1 1.1v2.7l.1 1.1zm-1.9-2.8c-1.2.1-1.8.5-1.8 1.1l.2.5c.1.2.3.2.5.2.3 0 .6-.1.8-.4l.3-.9v-.5zM111.1 35h-1.7v-5.9h1.6v1.1c.2-.8.7-1.2 1.3-1.2h.3v1.7l-.8.2c-.2.1-.4.3-.5.6l-.2 1.1V35zM117.4 31.1l1.9 3.9h-1.9l-1.2-2.7-1 1.2V35h-1.6v-8h1.6v4.8l.3-.3.3-.4 1.7-2h1.7l-1.8 2zM125.2 32.3h-3.8v.3c0 .4.1.7.3 1s.5.3.8.3c.6 0 .9-.3 1-.9l1.6.1c-.4 1.4-1.3 2.1-2.7 2.1-.6 0-1.1-.1-1.5-.4s-.8-.6-1-1-.4-1-.4-1.6c0-.9.3-1.7.8-2.3s1.2-.9 2.1-.9c.8 0 1.4.3 2 .8s.8 1.4.8 2.5zm-3.8-1h2.1c-.1-.8-.4-1.2-1-1.2s-1 .4-1.1 1.2zM128.3 30.4v2.5l.1.6c.1.1.3.2.7.2h.6V35l-1.1.1c-.7 0-1.2-.1-1.5-.4s-.5-.8-.5-1.5v-2.8h-.9V29h1l.1-1.7 1.5-.1v1.9h1.3v1.4h-1.3zM130.5 37v-7.9h1.6v.9c.3-.7.8-1 1.6-1 .6 0 1.2.3 1.6.8s.6 1.3.6 2.2c0 1-.2 1.8-.6 2.4s-.9.8-1.6.8c-.7 0-1.1-.3-1.4-.8V37h-1.8zm1.7-4.6l.1.9.3.4.5.2c.2 0 .5-.1.6-.4s.3-.8.3-1.6c0-1.2-.3-1.8-.9-1.8l-.6.3c-.2.2-.3.6-.3 1.1v.9zM137 35v-8h1.7v8H137zM145.4 35h-1.7l-.1-.9c-.3.4-.6.7-.9.8a3 3 0 0 1-1 .2c-.6 0-1-.2-1.3-.5-.3-.3-.5-.7-.5-1.2 0-.4.1-.7.3-1 .2-.3.5-.6 1-.7l2.4-.4V31c0-.6-.3-.9-.9-.9-.6 0-1 .3-1 .9l-1.6-.2c.1-.7.4-1.1 1-1.4s1.1-.4 1.8-.4l1.1.1.8.4.4.6.1 1.1v2.7l.1 1.1zm-1.9-2.8c-1.2.1-1.8.5-1.8 1.1l.2.5c.1.2.3.2.5.2.3 0 .6-.1.8-.4l.3-.9v-.5zM151.9 32.8c-.1.7-.3 1.3-.8 1.7s-1.1.6-1.9.6c-.8 0-1.5-.3-2-.8s-.8-1.3-.8-2.2.3-1.7.8-2.3 1.3-.9 2.2-.9c.7 0 1.3.2 1.8.7s.7 1 .8 1.6l-1.6.1c-.1-.7-.4-1.1-.9-1.1-.7 0-1 .6-1 1.7 0 .8.1 1.2.3 1.4s.4.3.7.3c.5 0 .9-.3 1-1l1.4.2zM158.2 32.3h-3.8v.3c0 .4.1.7.3 1s.5.3.8.3c.6 0 .9-.3 1-.9l1.6.1c-.4 1.4-1.3 2.1-2.7 2.1-.6 0-1.1-.1-1.5-.4s-.8-.6-1-1-.4-1-.4-1.6c0-.9.3-1.7.8-2.3s1.2-.9 2.1-.9c.8 0 1.4.3 2 .8s.8 1.4.8 2.5zm-3.9-1h2.1c-.1-.8-.4-1.2-1-1.2s-1 .4-1.1 1.2z"/><g><radialGradient id="SVGID_1_" cx="16.9" cy="-3.8" r="32.6" gradientTransform="matrix(.627 0 0 .4754 19 9.8)" gradientUnits="userSpaceOnUse"><stop offset="0" stop-color="#1d75ba"/><stop offset=".4" stop-color="#01509a"/><stop offset=".9" stop-color="#1e245b"/><stop offset="1" stop-color="#465ea4"/></radialGradient><path d="M39 11.2s-2.1 0-2.6-2.3c-.4-1.8-.8-3-3-3h-1.9-5.3c-2.2 0-2.5 1.2-3 3-.5 2.3-2.6 2.3-2.6 2.3h-4l-1.8 5.6h29.9L43 11.2h-4zm-7.5-1.7h-3.4a.9.9 0 0 1-.9-.9c0-.5.4-.9.9-.9h3.4c.5 0 .9.4.9.9s-.4.9-.9.9z" fill="url(#SVGID_1_)"/><linearGradient id="SVGID_2_" gradientUnits="userSpaceOnUse" x1="14.9" y1="14" x2="16.6" y2="14"><stop offset="0" stop-color="#7f0b12" stop-opacity="0"/><stop offset=".4" stop-color="#6d070c" stop-opacity=".4"/><stop offset="1" stop-color="#4b0000"/></linearGradient><path opacity=".5" fill="url(#SVGID_2_)" d="M16.6 11.2v5.5l-1.7.1z"/><linearGradient id="SVGID_3_" gradientUnits="userSpaceOnUse" x1="-8542.7" y1="14" x2="-8540.9" y2="14" gradientTransform="matrix(-1 0 0 1 -8498 0)"><stop offset="0" stop-color="#7f0b12" stop-opacity="0"/><stop offset=".4" stop-color="#6d070c" stop-opacity=".4"/><stop offset="1" stop-color="#4b0000"/></linearGradient><path opacity=".5" fill="url(#SVGID_3_)" d="M42.9 11.2v5.6h1.8z"/><g><radialGradient id="SVGID_4_" cx="17.4" cy="24.3" r="34.8" gradientTransform="matrix(.627 0 0 .6347 19 10.2)" gradientUnits="userSpaceOnUse"><stop offset="0" stop-color="#df7326"/><stop offset=".2" stop-color="#df6626"/><stop offset=".3" stop-color="#e05526"/><stop offset=".5" stop-color="#d44d24"/><stop offset=".7" stop-color="#b33820"/><stop offset="1" stop-color="#871c1a"/></radialGradient><path d="M40.4 16.8s-2.4 0-3.1-2.6c-.5-2-.9-3.5-3.4-3.5h-2.2-6.2c-2.5 0-2.9 1.4-3.4 3.5-.6 2.6-3.1 2.6-3.1 2.6h-4.3l.5 9.3-.5 11.8h29.9L44.2 26l.5-9.2h-4.3zm-8.6-1.9h-4a1 1 0 0 1 0-2h4c.6 0 1 .5 1 1s-.5 1-1 1z" fill="url(#SVGID_4_)"/><linearGradient id="SVGID_5_" gradientUnits="userSpaceOnUse" x1="17.1" y1="11.1" x2="17.1" y2="45" gradientTransform="matrix(.627 0 0 .627 19 10.4)"><stop offset=".4" stop-color="#f7ec30" stop-opacity="0"/><stop offset=".4" stop-color="#f8df33" stop-opacity="0"/><stop offset=".4" stop-color="#f9c939" stop-opacity="0"/><stop offset=".4" stop-color="#f9ba3d" stop-opacity=".1"/><stop offset=".4" stop-color="#fab13f" stop-opacity=".1"/><stop offset=".4" stop-color="#faae40" stop-opacity=".1"/><stop offset=".5" stop-color="#f9a535" stop-opacity=".3"/><stop offset=".7" stop-color="#f79724" stop-opacity=".7"/><stop offset=".8" stop-color="#f6921e" stop-opacity=".9"/></linearGradient><path d="M40.4 16.8s-2.4 0-3.1-2.6c-.5-2-.9-3.5-3.4-3.5h-2.2-6.2c-2.5 0-2.9 1.4-3.4 3.5-.6 2.6-3.1 2.6-3.1 2.6h-4.3l.5 9.3-.5 11.8h29.9L44.2 26l.5-9.2h-4.3zm-8.6-1.9h-4a1 1 0 0 1 0-2h4c.6 0 1 .5 1 1s-.5 1-1 1z" fill="url(#SVGID_5_)"/><radialGradient id="SVGID_6_" cx="17.3" cy="15.6" r="60.7" gradientTransform="matrix(.627 0 0 .3965 19 14)" gradientUnits="userSpaceOnUse"><stop offset=".6" stop-color="#f7ec30" stop-opacity="0"/><stop offset=".9" stop-color="#f9ec31"/></radialGradient><path d="M40.4 16.8s-2.4 0-3.1-2.6c-.5-2-.9-3.5-3.4-3.5h-2.2-6.2c-2.5 0-2.9 1.4-3.4 3.5-.6 2.6-3.1 2.6-3.1 2.6h-4.3l.5 9.3-.5 11.8h29.9L44.2 26l.5-9.2h-4.3zm-8.6-1.9h-4a1 1 0 0 1 0-2h4c.6 0 1 .5 1 1s-.5 1-1 1z" fill="url(#SVGID_6_)"/><radialGradient id="SVGID_7_" cx="17.1" cy="28.7" r="75.5" gradientTransform="matrix(.627 0 0 .3174 19 19.3)" gradientUnits="userSpaceOnUse"><stop offset=".7" stop-color="#e05526" stop-opacity="0"/><stop offset=".7" stop-color="#e05526" stop-opacity=".9"/><stop offset=".7" stop-color="#e05526"/></radialGradient><path d="M40.4 16.8s-2.4 0-3.1-2.6c-.5-2-.9-3.5-3.4-3.5h-2.2-6.2c-2.5 0-2.9 1.4-3.4 3.5-.6 2.6-3.1 2.6-3.1 2.6h-4.3l.5 9.3-.5 11.8h29.9L44.2 26l.5-9.2h-4.3zm-8.6-1.9h-4a1 1 0 0 1 0-2h4c.6 0 1 .5 1 1s-.5 1-1 1z" fill="url(#SVGID_7_)"/></g><g class="st9"><defs><path id="SVGID_8_" class="st9" d="M31.8 14.9h-4a1 1 0 0 1 0-2h4c.6 0 1 .5 1 1s-.5 1-1 1z"/></defs><clipPath id="SVGID_9_"><use xlink:href="#SVGID_8_" overflow="visible"/></clipPath></g><g><radialGradient id="SVGID_10_" cx="17.2" cy="26.9" r="21.9" gradientTransform="matrix(.627 0 0 .627 19 10.4)" gradientUnits="userSpaceOnUse"><stop offset="0" stop-color="#ca3e26"/><stop offset=".5" stop-color="#b22025"/><stop offset="1" stop-color="#871c1a"/></radialGradient><path d="M29.8 17.8c-1 0-2.9 3.2-3.5 6.4l-2.2 2.2V32h1.5l2.1-2.1.7.6h2.7l.7-.6L34 32h1.5v-5.7l-2.2-2.2c-.6-3.1-2.5-6.3-3.5-6.3zm0 3.3c.3 0 .9.9 1.3 2.1l-1.3-.1-1.3.1c.4-1.1 1-2.1 1.3-2.1zm.5 10.1h.8l.1 1.1c0 1.5-1.1 2.7-1.5 2.7-.4 0-1.5-1.2-1.5-2.7l.1-1.1h.8l-.1.7c0 .7.5 1.2.7 1.2.2 0 .7-.5.7-1.2.1-.2 0-.5-.1-.7z" fill="url(#SVGID_10_)"/><linearGradient id="SVGID_11_" gradientUnits="userSpaceOnUse" x1="17.1" y1="35.2" x2="17.1" y2="11.1" gradientTransform="matrix(.627 0 0 .627 19 10.4)"><stop offset=".4" stop-color="#b22025" stop-opacity="0"/><stop offset=".4" stop-color="#a31f21" stop-opacity="0"/><stop offset=".4" stop-color="#931d1d" stop-opacity=".1"/><stop offset=".4" stop-color="#8a1c1b" stop-opacity=".1"/><stop offset=".4" stop-color="#871c1a" stop-opacity=".2"/><stop offset="1" stop-color="#871c1a"/><stop offset="1" stop-color="#861b1a"/><stop offset="1" stop-color="#7f1817"/><stop offset="1" stop-color="#731312"/><stop offset="1" stop-color="#620b0a"/><stop offset="1" stop-color="#4d0101"/><stop offset="1" stop-color="#4b0000"/></linearGradient><path d="M29.8 17.8c-1 0-2.9 3.2-3.5 6.4l-2.2 2.2V32h1.5l2.1-2.1.7.6h2.7l.7-.6L34 32h1.5v-5.7l-2.2-2.2c-.6-3.1-2.5-6.3-3.5-6.3zm0 3.3c.3 0 .9.9 1.3 2.1l-1.3-.1-1.3.1c.4-1.1 1-2.1 1.3-2.1zm.5 10.1h.8l.1 1.1c0 1.5-1.1 2.7-1.5 2.7-.4 0-1.5-1.2-1.5-2.7l.1-1.1h.8l-.1.7c0 .7.5 1.2.7 1.2.2 0 .7-.5.7-1.2.1-.2 0-.5-.1-.7z" fill="url(#SVGID_11_)"/></g></g></svg>