<svg xmlns="http://www.w3.org/2000/svg" xmlns:xlink="http://www.w3.org/1999/xlink" width="172px" height="50px" viewBox="0 0 172 50">
  <defs>
    <linearGradient id="b" x1="50%" x2="50%" y1="0%" y2="38.91%">
      <stop offset="0%" stop-color="#FBDA09"/>
      <stop offset="100%" stop-color="#FFBC00"/>
    </linearGradient>
    <path id="a" d="M28.35 14.69c1.77 1 1.77 2.64 0 3.64L3.23 32.63c-1.77 1-3.2.17-3.2-1.87V2.26C.02.23 1.45-.61 3.22.4l25.12 14.29z"/>
    <linearGradient id="c" x1="0%" x2="69.31%" y1="58.48%" y2="39.08%">
      <stop offset="0%" stop-color="#01E2FF"/>
      <stop offset="100%" stop-color="#01C4FF"/>
    </linearGradient>
    <linearGradient id="e" x1="20.28%" x2="83.82%" y1="20.1%" y2="83.62%">
      <stop offset="0%" stop-color="#28D781"/>
      <stop offset="100%" stop-color="#02F076"/>
    </linearGradient>
    <linearGradient id="f" x1="74.49%" x2="10.11%" y1="17.43%" y2="91.18%">
      <stop offset="0%" stop-color="#F2414E"/>
      <stop offset="100%" stop-color="#E02554"/>
    </linearGradient>
  </defs>
  <g fill="none" fill-rule="evenodd">
    <path fill="#000" fill-rule="nonzero" d="M.17 4.85v39.7c0 2.58 2.1 4.67 4.68 4.67h162.3c2.58 0 4.68-2.1 4.68-4.68V4.85c0-2.58-2.1-4.68-4.68-4.68H4.85A4.68 4.68 0 0 0 .17 4.85z"/>
    <path fill="#FFF" d="M91.2 16.08a4.21 4.21 0 1 1 0-8.42 4.21 4.21 0 0 1 0 8.42zm0-1.28a2.93 2.93 0 1 0 0-5.85 2.93 2.93 0 0 0 0 5.85zm-28.54-2.46v2.57h3.39v.94h-4.68V8.01h4.68v.94h-3.4v2.45h3.05v.94h-3.04zm7.95-3.39v6.9h-1.28v-6.9h-2V8h5.27v.94h-1.99zm11.47 0v6.9h-1.29v-6.9H78.8V8h5.27v.94h-1.99zM76.35 8h1.29v7.85h-1.3zm20.88.01h-.76v7.84h1.29V9.73l3.74 6.12h1.29V8.01h-1.29v5.74L98 8h-.77zm-37.85.91a3.88 3.88 0 0 0-2.89-1.14 4.13 4.13 0 1 0 0 8.26c2.32.02 4.26-1.62 3.87-4.46v-.04h-1.03c.01.12.02.24.01.37 0 2.03-1.16 2.98-2.81 2.98a2.98 2.98 0 1 1 0-5.96c.82 0 1.54.28 2.04.8l.8-.81z"/>
    <g fill="#FFF">
      <path d="M125.38 22.05H132s3.82.65 3.82 5.04c0 4.38-3.82 5.03-3.82 5.03h-6.63V22.05zm1.28 2.44v5.4h4.5s2.06 0 2.06-2.7-2.05-2.7-2.05-2.7h-4.5z"/>
      <path d="M124.79 22.05h2.34v16.38h-2.34zm12.41.01h2.33v16.38h-2.34zm11 15.2a5.58 5.58 0 0 1-3.3 1.14c-3.72.23-3.73-3.17-3.73-3.4 0-.23-.18-3 2.79-3.45 2.1-.31 3.57.21 4.25.54v-.48c-.17-.64-.69-1.81-2.24-1.81-2.13 0-2.6 1.15-2.6 1.15l-1.95-1.15s1.1-2.25 4.37-2.25c4.07 0 4.76 2.8 4.76 3.75v7.12h-2.34v-1.16zm-.16-3.5s-4.5-1.22-4.66 1.31c-.16 2.53 4.32 1.32 4.72-.48 0-.57-.06-.84-.06-.84zm6.9 4.05L152.76 43h2.34l6.33-15.04h-2.34l-2.98 7.07-3-7.13h-2.34l4.17 9.91zm-35.39-6.08l-7.4 3.06s.48 1.7 2.7 1.7c1.75.01 2.73-1.54 2.73-1.54l1.88 1.27s-1.52 2.45-4.62 2.45c-3.82 0-5.5-3.33-5.5-5.5 0-2.09 1.34-5.62 5.26-5.62s4.95 4.18 4.95 4.18zm-2.82-.86s-.93-1.42-2.35-1.16c-3.03.55-2.65 3.2-2.65 3.2l5-2.04zm-10.9-8.81h2.48V38.4h-2.48zm-3.96 5.84l2.29.03v10.31c0 2.64-1.57 5.42-5.26 5.42-3.7 0-4.89-3.27-4.89-3.27l2.1-.89s.64 2.02 2.9 2.02c2.56 0 2.86-2.34 2.86-3.13v-1.12s-.89 1.39-3.1 1.39a5.43 5.43 0 0 1-5.22-5.54 5.4 5.4 0 0 1 5.26-5.57 3.67 3.67 0 0 1 3.06 1.38V27.9zm-2.9 8.66c1.67 0 3.03-1.53 3.03-3.42 0-1.88-1.36-3.41-3.03-3.41-1.66 0-3.02 1.53-3.02 3.41 0 1.9 1.36 3.42 3.02 3.42zm-12.02 2.11a5.56 5.56 0 1 1-.01-11.13 5.56 5.56 0 0 1 0 11.13zm-.04-2.18c1.73 0 3.13-1.51 3.13-3.38 0-1.87-1.4-3.38-3.13-3.38s-3.13 1.51-3.13 3.38c0 1.87 1.4 3.38 3.13 3.38zM74.9 38.67a5.56 5.56 0 1 1-.02-11.13 5.56 5.56 0 0 1 .02 11.13zm-.04-2.18c1.73 0 3.13-1.51 3.13-3.38 0-1.87-1.4-3.38-3.13-3.38s-3.13 1.51-3.13 3.38c0 1.87 1.4 3.38 3.13 3.38zm-14.35-7.18h7.36l-.08 2.33h-7.28z"/>
      <path d="M66.42 23.84a8.1 8.1 0 0 0-6.02-2.37 8.62 8.62 0 1 0 0 17.22c4.85.04 8.89-3.37 8.08-9.29v-.09h-2.15c.02.25.03.5.02.77 0 4.23-2.44 6.2-5.87 6.2a6.22 6.22 0 1 1 0-12.42c1.72 0 3.2.6 4.26 1.66l1.68-1.68z"/>
    </g>
    <g transform="translate(11.75 8.13)">
      <mask id="d" fill="#fff">
        <use xlink:href="#a"/>
      </mask>
      <use fill="url(#b)" xlink:href="#a"/>
      <path fill="url(#c)" d="M0-.01l16.36 16.26-16.57 16.9z" mask="url(#d)"/>
      <path fill="url(#e)" d="M-3.36-3.36l19.72 19.61 5.86-5.6z" mask="url(#d)"/>
      <path fill="url(#f)" d="M16.36 16.25l8.97 9.04-26.8 9.05z" mask="url(#d)"/>
    </g>
  </g>
</svg>
